<svg xmlns="http://www.w3.org/2000/svg" viewBox="0 0 64 64"><path fill="#222" d="M51.913 39.886H12.087a5.228 5.228 0 0 1-5.222-5.222V9.873a5.228 5.228 0 0 1 5.222-5.222h39.826a5.228 5.228 0 0 1 5.222 5.222v24.791a5.228 5.228 0 0 1-5.222 5.222ZM12.087 7.651a2.225 2.225 0 0 0-2.222 2.222v24.791a2.225 2.225 0 0 0 2.222 2.222h39.826a2.225 2.225 0 0 0 2.222-2.222V9.873a2.225 2.225 0 0 0-2.222-2.222Z"/><path fill="#222" d="M32 47.782h-6.812a1.5 1.5 0 0 1-1.416-1.994l2.755-7.9a1.5 1.5 0 1 1 2.833.988l-2.06 5.9H32a1.5 1.5 0 0 1 0 3Z"/><path fill="#222" d="M38.812 47.782H32a1.5 1.5 0 0 1 0-3h4.7l-2.06-5.9a1.5 1.5 0 1 1 2.833-.988l2.755 7.9a1.5 1.5 0 0 1-1.416 1.994zm16.823-13.305H8.365a1.5 1.5 0 1 1 0-3h47.27a1.5 1.5 0 1 1 0 3zm-3.888 24.872H12.253a1.5 1.5 0 0 1-1.2-2.394l5-6.736a1.5 1.5 0 0 1 1.205-.606h29.489a1.5 1.5 0 0 1 1.2.606l5 6.736a1.5 1.5 0 0 1-1.2 2.394zm-36.513-3h33.532l-2.774-3.736H18.008z"/></svg>